<mxfile modified="2024-06-10T06:39:27.410Z" host="app.diagrams.net" agent="Mozilla/5.0 (Macintosh; Intel Mac OS X 10_15_7) AppleWebKit/537.36 (KHTML, like Gecko) Chrome/125.0.0.0 Safari/537.36" etag="X7uxV9FXwk8cMQlsGX9O" version="24.5.2" type="github">
  <diagram id="Ht1M8jgEwFfnCIfOTk4-" name="Page-1">
    <mxGraphModel dx="1224" dy="738" grid="1" gridSize="10" guides="1" tooltips="1" connect="1" arrows="1" fold="1" page="1" pageScale="1" pageWidth="1169" pageHeight="827" math="0" shadow="0">
      <root>
        <mxCell id="0" />
        <mxCell id="1" parent="0" />
        <mxCell id="UEzPUAAOIrF-is8g5C7q-206" value="AWS Cloud" style="points=[[0,0],[0.25,0],[0.5,0],[0.75,0],[1,0],[1,0.25],[1,0.5],[1,0.75],[1,1],[0.75,1],[0.5,1],[0.25,1],[0,1],[0,0.75],[0,0.5],[0,0.25]];outlineConnect=0;gradientColor=none;html=1;whiteSpace=wrap;fontSize=12;fontStyle=0;shape=mxgraph.aws4.group;grIcon=mxgraph.aws4.group_aws_cloud_alt;strokeColor=#232F3E;fillColor=#ffffff;verticalAlign=top;align=left;spacingLeft=30;fontColor=#232F3E;dashed=0;labelBackgroundColor=#ffffff;container=1;pointerEvents=0;collapsible=0;recursiveResize=0;" parent="1" vertex="1">
          <mxGeometry x="230" y="530" width="610" height="340" as="geometry" />
        </mxCell>
        <mxCell id="GdiNVlwVZk-JOjfLRX_1-48" value="Engineer Depart S3 bucket" style="sketch=0;outlineConnect=0;fontColor=#232F3E;gradientColor=none;fillColor=#7AA116;strokeColor=none;dashed=0;verticalLabelPosition=bottom;verticalAlign=top;align=center;html=1;fontSize=12;fontStyle=0;aspect=fixed;pointerEvents=1;shape=mxgraph.aws4.bucket;" parent="UEzPUAAOIrF-is8g5C7q-206" vertex="1">
          <mxGeometry x="62.75" y="105" width="75" height="78" as="geometry" />
        </mxCell>
        <mxCell id="GdiNVlwVZk-JOjfLRX_1-49" value="HR Depart S3 bucket" style="sketch=0;outlineConnect=0;fontColor=#232F3E;gradientColor=none;fillColor=#7AA116;strokeColor=none;dashed=0;verticalLabelPosition=bottom;verticalAlign=top;align=center;html=1;fontSize=12;fontStyle=0;aspect=fixed;pointerEvents=1;shape=mxgraph.aws4.bucket;" parent="UEzPUAAOIrF-is8g5C7q-206" vertex="1">
          <mxGeometry x="259.5" y="105" width="75" height="78" as="geometry" />
        </mxCell>
        <mxCell id="GdiNVlwVZk-JOjfLRX_1-53" value="" style="sketch=0;outlineConnect=0;fontColor=#232F3E;gradientColor=none;fillColor=#7AA116;strokeColor=none;dashed=0;verticalLabelPosition=bottom;verticalAlign=top;align=center;html=1;fontSize=12;fontStyle=0;aspect=fixed;pointerEvents=1;shape=mxgraph.aws4.backup_aws_backup_support_for_amazon_s3;" parent="UEzPUAAOIrF-is8g5C7q-206" vertex="1">
          <mxGeometry x="58.75" y="239" width="78" height="78" as="geometry" />
        </mxCell>
        <mxCell id="GdiNVlwVZk-JOjfLRX_1-54" value="" style="sketch=0;outlineConnect=0;fontColor=#232F3E;gradientColor=none;fillColor=#7AA116;strokeColor=none;dashed=0;verticalLabelPosition=bottom;verticalAlign=top;align=center;html=1;fontSize=12;fontStyle=0;aspect=fixed;pointerEvents=1;shape=mxgraph.aws4.backup_aws_backup_support_for_amazon_s3;" parent="UEzPUAAOIrF-is8g5C7q-206" vertex="1">
          <mxGeometry x="443" y="238" width="78" height="78" as="geometry" />
        </mxCell>
        <mxCell id="UEzPUAAOIrF-is8g5C7q-205" value="AWS Cloud" style="points=[[0,0],[0.25,0],[0.5,0],[0.75,0],[1,0],[1,0.25],[1,0.5],[1,0.75],[1,1],[0.75,1],[0.5,1],[0.25,1],[0,1],[0,0.75],[0,0.5],[0,0.25]];outlineConnect=0;gradientColor=none;html=1;whiteSpace=wrap;shape=mxgraph.aws4.group;grIcon=mxgraph.aws4.group_aws_cloud_alt;strokeColor=#232F3E;fillColor=none;verticalAlign=top;align=left;spacingLeft=30;dashed=0;container=1;pointerEvents=0;collapsible=0;recursiveResize=0;" parent="1" vertex="1">
          <mxGeometry x="224.5" y="150" width="616" height="356.5" as="geometry" />
        </mxCell>
        <mxCell id="GdiNVlwVZk-JOjfLRX_1-39" value="" style="edgeStyle=orthogonalEdgeStyle;rounded=0;orthogonalLoop=1;jettySize=auto;html=1;" parent="UEzPUAAOIrF-is8g5C7q-205" source="GdiNVlwVZk-JOjfLRX_1-1" target="GdiNVlwVZk-JOjfLRX_1-35" edge="1">
          <mxGeometry relative="1" as="geometry" />
        </mxCell>
        <mxCell id="GdiNVlwVZk-JOjfLRX_1-40" value="" style="edgeStyle=orthogonalEdgeStyle;rounded=0;orthogonalLoop=1;jettySize=auto;html=1;" parent="UEzPUAAOIrF-is8g5C7q-205" source="GdiNVlwVZk-JOjfLRX_1-1" target="GdiNVlwVZk-JOjfLRX_1-35" edge="1">
          <mxGeometry relative="1" as="geometry" />
        </mxCell>
        <object label="Orgnization&lt;div&gt;&lt;br&gt;&lt;/div&gt;" id="GdiNVlwVZk-JOjfLRX_1-1">
          <mxCell style="sketch=0;points=[[0,0,0],[0.25,0,0],[0.5,0,0],[0.75,0,0],[1,0,0],[0,1,0],[0.25,1,0],[0.5,1,0],[0.75,1,0],[1,1,0],[0,0.25,0],[0,0.5,0],[0,0.75,0],[1,0.25,0],[1,0.5,0],[1,0.75,0]];points=[[0,0,0],[0.25,0,0],[0.5,0,0],[0.75,0,0],[1,0,0],[0,1,0],[0.25,1,0],[0.5,1,0],[0.75,1,0],[1,1,0],[0,0.25,0],[0,0.5,0],[0,0.75,0],[1,0.25,0],[1,0.5,0],[1,0.75,0]];outlineConnect=0;fontColor=#232F3E;fillColor=#E7157B;strokeColor=#ffffff;dashed=0;verticalLabelPosition=bottom;verticalAlign=top;align=center;html=1;fontSize=12;fontStyle=0;aspect=fixed;shape=mxgraph.aws4.resourceIcon;resIcon=mxgraph.aws4.organizations;" parent="UEzPUAAOIrF-is8g5C7q-205" vertex="1">
            <mxGeometry x="495.5" y="32.5" width="78" height="78" as="geometry" />
          </mxCell>
        </object>
        <mxCell id="GdiNVlwVZk-JOjfLRX_1-3" value="Permission1" style="sketch=0;outlineConnect=0;fontColor=#232F3E;gradientColor=none;fillColor=#DD344C;strokeColor=none;dashed=0;verticalLabelPosition=bottom;verticalAlign=top;align=center;html=1;fontSize=12;fontStyle=0;aspect=fixed;pointerEvents=1;shape=mxgraph.aws4.permissions;" parent="UEzPUAAOIrF-is8g5C7q-205" vertex="1">
          <mxGeometry x="376.5" y="12.5" width="37.76" height="47.5" as="geometry" />
        </mxCell>
        <mxCell id="GdiNVlwVZk-JOjfLRX_1-61" style="edgeStyle=orthogonalEdgeStyle;rounded=0;orthogonalLoop=1;jettySize=auto;html=1;" parent="UEzPUAAOIrF-is8g5C7q-205" source="GdiNVlwVZk-JOjfLRX_1-4" target="GdiNVlwVZk-JOjfLRX_1-3" edge="1">
          <mxGeometry relative="1" as="geometry" />
        </mxCell>
        <mxCell id="GdiNVlwVZk-JOjfLRX_1-62" style="edgeStyle=orthogonalEdgeStyle;rounded=0;orthogonalLoop=1;jettySize=auto;html=1;" parent="UEzPUAAOIrF-is8g5C7q-205" source="GdiNVlwVZk-JOjfLRX_1-4" target="GdiNVlwVZk-JOjfLRX_1-30" edge="1">
          <mxGeometry relative="1" as="geometry">
            <Array as="points">
              <mxPoint x="366" y="80" />
              <mxPoint x="366" y="116" />
            </Array>
          </mxGeometry>
        </mxCell>
        <mxCell id="GdiNVlwVZk-JOjfLRX_1-4" value="Roles&lt;div&gt;&lt;br&gt;&lt;/div&gt;" style="sketch=0;outlineConnect=0;fontColor=#232F3E;gradientColor=none;fillColor=#DD344C;strokeColor=none;dashed=0;verticalLabelPosition=bottom;verticalAlign=top;align=center;html=1;fontSize=12;fontStyle=0;aspect=fixed;pointerEvents=1;shape=mxgraph.aws4.role;" parent="UEzPUAAOIrF-is8g5C7q-205" vertex="1">
          <mxGeometry x="285.5" y="60" width="70.02" height="39.5" as="geometry" />
        </mxCell>
        <mxCell id="GdiNVlwVZk-JOjfLRX_1-5" value="" style="sketch=0;outlineConnect=0;fontColor=#232F3E;gradientColor=none;fillColor=#DD344C;strokeColor=none;dashed=0;verticalLabelPosition=bottom;verticalAlign=top;align=center;html=1;fontSize=12;fontStyle=0;aspect=fixed;pointerEvents=1;shape=mxgraph.aws4.sts_alternate;" parent="UEzPUAAOIrF-is8g5C7q-205" vertex="1">
          <mxGeometry x="23.5" y="260" width="62" height="78" as="geometry" />
        </mxCell>
        <mxCell id="GdiNVlwVZk-JOjfLRX_1-56" style="edgeStyle=orthogonalEdgeStyle;rounded=0;orthogonalLoop=1;jettySize=auto;html=1;exitX=0.5;exitY=1;exitDx=0;exitDy=0;exitPerimeter=0;" parent="UEzPUAAOIrF-is8g5C7q-205" source="GdiNVlwVZk-JOjfLRX_1-6" edge="1">
          <mxGeometry relative="1" as="geometry">
            <mxPoint x="-104.5" y="340" as="targetPoint" />
          </mxGeometry>
        </mxCell>
        <mxCell id="GdiNVlwVZk-JOjfLRX_1-6" value="SSO" style="sketch=0;points=[[0,0,0],[0.25,0,0],[0.5,0,0],[0.75,0,0],[1,0,0],[0,1,0],[0.25,1,0],[0.5,1,0],[0.75,1,0],[1,1,0],[0,0.25,0],[0,0.5,0],[0,0.75,0],[1,0.25,0],[1,0.5,0],[1,0.75,0]];outlineConnect=0;fontColor=#232F3E;fillColor=#DD344C;strokeColor=#ffffff;dashed=0;verticalLabelPosition=bottom;verticalAlign=top;align=center;html=1;fontSize=12;fontStyle=0;aspect=fixed;shape=mxgraph.aws4.resourceIcon;resIcon=mxgraph.aws4.single_sign_on;" parent="UEzPUAAOIrF-is8g5C7q-205" vertex="1">
          <mxGeometry x="15.5" y="42.5" width="78" height="78" as="geometry" />
        </mxCell>
        <mxCell id="GdiNVlwVZk-JOjfLRX_1-10" value="" style="sketch=0;outlineConnect=0;fontColor=#232F3E;gradientColor=none;fillColor=#DD344C;strokeColor=none;dashed=0;verticalLabelPosition=bottom;verticalAlign=top;align=center;html=1;fontSize=12;fontStyle=0;aspect=fixed;pointerEvents=1;shape=mxgraph.aws4.mfa_token;" parent="UEzPUAAOIrF-is8g5C7q-205" vertex="1">
          <mxGeometry x="115.5" y="252.5" width="78" height="78" as="geometry" />
        </mxCell>
        <mxCell id="GdiNVlwVZk-JOjfLRX_1-11" value="Cert Mgr" style="sketch=0;points=[[0,0,0],[0.25,0,0],[0.5,0,0],[0.75,0,0],[1,0,0],[0,1,0],[0.25,1,0],[0.5,1,0],[0.75,1,0],[1,1,0],[0,0.25,0],[0,0.5,0],[0,0.75,0],[1,0.25,0],[1,0.5,0],[1,0.75,0]];outlineConnect=0;fontColor=#232F3E;fillColor=#DD344C;strokeColor=#ffffff;dashed=0;verticalLabelPosition=bottom;verticalAlign=top;align=center;html=1;fontSize=12;fontStyle=0;aspect=fixed;shape=mxgraph.aws4.resourceIcon;resIcon=mxgraph.aws4.certificate_manager_3;" parent="UEzPUAAOIrF-is8g5C7q-205" vertex="1">
          <mxGeometry x="215.5" y="252.5" width="78" height="78" as="geometry" />
        </mxCell>
        <mxCell id="GdiNVlwVZk-JOjfLRX_1-14" value="Secretes Mgr" style="sketch=0;points=[[0,0,0],[0.25,0,0],[0.5,0,0],[0.75,0,0],[1,0,0],[0,1,0],[0.25,1,0],[0.5,1,0],[0.75,1,0],[1,1,0],[0,0.25,0],[0,0.5,0],[0,0.75,0],[1,0.25,0],[1,0.5,0],[1,0.75,0]];outlineConnect=0;fontColor=#232F3E;fillColor=#DD344C;strokeColor=#ffffff;dashed=0;verticalLabelPosition=bottom;verticalAlign=top;align=center;html=1;fontSize=12;fontStyle=0;aspect=fixed;shape=mxgraph.aws4.resourceIcon;resIcon=mxgraph.aws4.secrets_manager;" parent="UEzPUAAOIrF-is8g5C7q-205" vertex="1">
          <mxGeometry x="360.5" y="252.5" width="78" height="78" as="geometry" />
        </mxCell>
        <mxCell id="GdiNVlwVZk-JOjfLRX_1-26" value="Audit Manager" style="sketch=0;points=[[0,0,0],[0.25,0,0],[0.5,0,0],[0.75,0,0],[1,0,0],[0,1,0],[0.25,1,0],[0.5,1,0],[0.75,1,0],[1,1,0],[0,0.25,0],[0,0.5,0],[0,0.75,0],[1,0.25,0],[1,0.5,0],[1,0.75,0]];outlineConnect=0;fontColor=#232F3E;fillColor=#DD344C;strokeColor=#ffffff;dashed=0;verticalLabelPosition=bottom;verticalAlign=top;align=center;html=1;fontSize=12;fontStyle=0;aspect=fixed;shape=mxgraph.aws4.resourceIcon;resIcon=mxgraph.aws4.audit_manager;" parent="UEzPUAAOIrF-is8g5C7q-205" vertex="1">
          <mxGeometry x="495.5" y="252.5" width="78" height="78" as="geometry" />
        </mxCell>
        <mxCell id="GdiNVlwVZk-JOjfLRX_1-44" value="" style="edgeStyle=orthogonalEdgeStyle;rounded=0;orthogonalLoop=1;jettySize=auto;html=1;" parent="UEzPUAAOIrF-is8g5C7q-205" source="GdiNVlwVZk-JOjfLRX_1-28" target="GdiNVlwVZk-JOjfLRX_1-4" edge="1">
          <mxGeometry relative="1" as="geometry" />
        </mxCell>
        <mxCell id="GdiNVlwVZk-JOjfLRX_1-28" value="IAM" style="sketch=0;points=[[0,0,0],[0.25,0,0],[0.5,0,0],[0.75,0,0],[1,0,0],[0,1,0],[0.25,1,0],[0.5,1,0],[0.75,1,0],[1,1,0],[0,0.25,0],[0,0.5,0],[0,0.75,0],[1,0.25,0],[1,0.5,0],[1,0.75,0]];outlineConnect=0;fontColor=#232F3E;fillColor=#DD344C;strokeColor=#ffffff;dashed=0;verticalLabelPosition=bottom;verticalAlign=top;align=center;html=1;fontSize=12;fontStyle=0;aspect=fixed;shape=mxgraph.aws4.resourceIcon;resIcon=mxgraph.aws4.identity_and_access_management;" parent="UEzPUAAOIrF-is8g5C7q-205" vertex="1">
          <mxGeometry x="155.5" y="40.75" width="74.5" height="74.5" as="geometry" />
        </mxCell>
        <mxCell id="GdiNVlwVZk-JOjfLRX_1-30" value="Permission2" style="sketch=0;outlineConnect=0;fontColor=#232F3E;gradientColor=none;fillColor=#DD344C;strokeColor=none;dashed=0;verticalLabelPosition=bottom;verticalAlign=top;align=center;html=1;fontSize=12;fontStyle=0;aspect=fixed;pointerEvents=1;shape=mxgraph.aws4.permissions;" parent="UEzPUAAOIrF-is8g5C7q-205" vertex="1">
          <mxGeometry x="376.5" y="92.5" width="37.76" height="47.5" as="geometry" />
        </mxCell>
        <mxCell id="GdiNVlwVZk-JOjfLRX_1-41" value="" style="edgeStyle=orthogonalEdgeStyle;rounded=0;orthogonalLoop=1;jettySize=auto;html=1;verticalAlign=bottom;" parent="UEzPUAAOIrF-is8g5C7q-205" source="GdiNVlwVZk-JOjfLRX_1-34" target="GdiNVlwVZk-JOjfLRX_1-1" edge="1">
          <mxGeometry relative="1" as="geometry" />
        </mxCell>
        <mxCell id="GdiNVlwVZk-JOjfLRX_1-34" value="account1" style="sketch=0;outlineConnect=0;fontColor=#232F3E;gradientColor=none;fillColor=#DD344C;strokeColor=none;dashed=0;verticalLabelPosition=bottom;verticalAlign=top;align=center;html=1;fontSize=12;fontStyle=0;aspect=fixed;pointerEvents=1;shape=mxgraph.aws4.organizations_account;" parent="UEzPUAAOIrF-is8g5C7q-205" vertex="1">
          <mxGeometry x="485.5" y="167.5" width="35.58" height="37.5" as="geometry" />
        </mxCell>
        <mxCell id="GdiNVlwVZk-JOjfLRX_1-35" value="account2" style="sketch=0;outlineConnect=0;fontColor=#232F3E;gradientColor=none;fillColor=#DD344C;strokeColor=none;dashed=0;verticalLabelPosition=bottom;verticalAlign=top;align=center;html=1;fontSize=12;fontStyle=0;aspect=fixed;pointerEvents=1;shape=mxgraph.aws4.organizations_account;" parent="UEzPUAAOIrF-is8g5C7q-205" vertex="1">
          <mxGeometry x="555.5" y="166.5" width="35.58" height="37.5" as="geometry" />
        </mxCell>
        <mxCell id="GdiNVlwVZk-JOjfLRX_1-45" value="users" style="sketch=0;outlineConnect=0;gradientColor=none;fontColor=#545B64;strokeColor=none;fillColor=#879196;dashed=0;verticalLabelPosition=bottom;verticalAlign=top;align=center;html=1;fontSize=12;fontStyle=0;aspect=fixed;shape=mxgraph.aws4.illustration_users;pointerEvents=1" parent="UEzPUAAOIrF-is8g5C7q-205" vertex="1">
          <mxGeometry x="172.75" y="180" width="40" height="40" as="geometry" />
        </mxCell>
        <mxCell id="GdiNVlwVZk-JOjfLRX_1-47" value="group" style="sketch=0;pointerEvents=1;shadow=0;dashed=0;html=1;strokeColor=none;fillColor=#505050;labelPosition=center;verticalLabelPosition=bottom;verticalAlign=top;outlineConnect=0;align=center;shape=mxgraph.office.security.role_group;" parent="UEzPUAAOIrF-is8g5C7q-205" vertex="1">
          <mxGeometry x="207.5" y="124" width="42.5" height="36" as="geometry" />
        </mxCell>
        <mxCell id="GdiNVlwVZk-JOjfLRX_1-25" value="" style="edgeStyle=orthogonalEdgeStyle;rounded=0;orthogonalLoop=1;jettySize=auto;html=1;" parent="1" source="GdiNVlwVZk-JOjfLRX_1-15" target="GdiNVlwVZk-JOjfLRX_1-24" edge="1">
          <mxGeometry relative="1" as="geometry" />
        </mxCell>
        <mxCell id="GdiNVlwVZk-JOjfLRX_1-15" value="AD connector" style="sketch=0;outlineConnect=0;fontColor=#232F3E;gradientColor=none;fillColor=#DD344C;strokeColor=none;dashed=0;verticalLabelPosition=bottom;verticalAlign=top;align=center;html=1;fontSize=12;fontStyle=0;aspect=fixed;pointerEvents=1;shape=mxgraph.aws4.ad_connector;" parent="1" vertex="1">
          <mxGeometry x="31" y="100" width="78" height="73" as="geometry" />
        </mxCell>
        <mxCell id="GdiNVlwVZk-JOjfLRX_1-23" value="" style="edgeStyle=orthogonalEdgeStyle;rounded=0;orthogonalLoop=1;jettySize=auto;html=1;" parent="1" source="GdiNVlwVZk-JOjfLRX_1-18" target="GdiNVlwVZk-JOjfLRX_1-15" edge="1">
          <mxGeometry relative="1" as="geometry" />
        </mxCell>
        <mxCell id="GdiNVlwVZk-JOjfLRX_1-18" value="On-Prem MS AD Server" style="image;aspect=fixed;perimeter=ellipsePerimeter;html=1;align=center;shadow=0;dashed=0;spacingTop=3;image=img/lib/active_directory/windows_server_2.svg;" parent="1" vertex="1">
          <mxGeometry x="50" width="40" height="50" as="geometry" />
        </mxCell>
        <mxCell id="GdiNVlwVZk-JOjfLRX_1-24" value="Azure Active Directory&lt;div&gt;&lt;br&gt;&lt;/div&gt;" style="image;sketch=0;aspect=fixed;html=1;points=[];align=center;fontSize=12;image=img/lib/mscae/Azure_AD_Domain_Services.svg;" parent="1" vertex="1">
          <mxGeometry x="130" y="190" width="50" height="50" as="geometry" />
        </mxCell>
        <mxCell id="GdiNVlwVZk-JOjfLRX_1-29" style="edgeStyle=orthogonalEdgeStyle;rounded=0;orthogonalLoop=1;jettySize=auto;html=1;entryX=0;entryY=0.5;entryDx=0;entryDy=0;entryPerimeter=0;" parent="1" source="GdiNVlwVZk-JOjfLRX_1-24" target="GdiNVlwVZk-JOjfLRX_1-6" edge="1">
          <mxGeometry relative="1" as="geometry" />
        </mxCell>
        <mxCell id="GdiNVlwVZk-JOjfLRX_1-46" value="users" style="sketch=0;outlineConnect=0;gradientColor=none;fontColor=#545B64;strokeColor=none;fillColor=#879196;dashed=0;verticalLabelPosition=bottom;verticalAlign=top;align=center;html=1;fontSize=12;fontStyle=0;aspect=fixed;shape=mxgraph.aws4.illustration_users;pointerEvents=1" parent="1" vertex="1">
          <mxGeometry x="476.25" y="332" width="40" height="40" as="geometry" />
        </mxCell>
        <mxCell id="GdiNVlwVZk-JOjfLRX_1-50" value="HR Depart S3 bucket" style="sketch=0;outlineConnect=0;fontColor=#232F3E;gradientColor=none;fillColor=#7AA116;strokeColor=none;dashed=0;verticalLabelPosition=bottom;verticalAlign=top;align=center;html=1;fontSize=12;fontStyle=0;aspect=fixed;pointerEvents=1;shape=mxgraph.aws4.bucket;" parent="1" vertex="1">
          <mxGeometry x="684" y="625.5" width="75" height="78" as="geometry" />
        </mxCell>
        <mxCell id="GdiNVlwVZk-JOjfLRX_1-51" value="" style="sketch=0;outlineConnect=0;fontColor=#232F3E;gradientColor=none;fillColor=#7AA116;strokeColor=none;dashed=0;verticalLabelPosition=bottom;verticalAlign=top;align=center;html=1;fontSize=12;fontStyle=0;aspect=fixed;pointerEvents=1;shape=mxgraph.aws4.backup_aws_backup_support_for_amazon_s3;" parent="1" vertex="1">
          <mxGeometry x="479" y="769" width="78" height="78" as="geometry" />
        </mxCell>
        <mxCell id="GdiNVlwVZk-JOjfLRX_1-52" value="" style="edgeStyle=orthogonalEdgeStyle;rounded=0;orthogonalLoop=1;jettySize=auto;html=1;" parent="1" source="GdiNVlwVZk-JOjfLRX_1-49" edge="1">
          <mxGeometry relative="1" as="geometry">
            <mxPoint x="527" y="764" as="targetPoint" />
          </mxGeometry>
        </mxCell>
        <mxCell id="GdiNVlwVZk-JOjfLRX_1-58" style="edgeStyle=orthogonalEdgeStyle;rounded=0;orthogonalLoop=1;jettySize=auto;html=1;exitX=0.5;exitY=1;exitDx=0;exitDy=0;exitPerimeter=0;" parent="1" source="GdiNVlwVZk-JOjfLRX_1-55" target="GdiNVlwVZk-JOjfLRX_1-48" edge="1">
          <mxGeometry relative="1" as="geometry" />
        </mxCell>
        <mxCell id="GdiNVlwVZk-JOjfLRX_1-59" style="edgeStyle=orthogonalEdgeStyle;rounded=0;orthogonalLoop=1;jettySize=auto;html=1;" parent="1" source="GdiNVlwVZk-JOjfLRX_1-55" target="GdiNVlwVZk-JOjfLRX_1-49" edge="1">
          <mxGeometry relative="1" as="geometry" />
        </mxCell>
        <mxCell id="GdiNVlwVZk-JOjfLRX_1-60" style="edgeStyle=orthogonalEdgeStyle;rounded=0;orthogonalLoop=1;jettySize=auto;html=1;exitX=1;exitY=0.59;exitDx=0;exitDy=0;exitPerimeter=0;" parent="1" source="GdiNVlwVZk-JOjfLRX_1-55" target="GdiNVlwVZk-JOjfLRX_1-50" edge="1">
          <mxGeometry relative="1" as="geometry">
            <Array as="points">
              <mxPoint x="150" y="520" />
              <mxPoint x="722" y="520" />
            </Array>
          </mxGeometry>
        </mxCell>
        <mxCell id="GdiNVlwVZk-JOjfLRX_1-55" value="ABAC via AWS SSO data flow" style="verticalLabelPosition=bottom;html=1;verticalAlign=top;align=center;strokeColor=none;fillColor=#00BEF2;shape=mxgraph.azure.access_control;" parent="1" vertex="1">
          <mxGeometry x="100" y="500" width="50" height="50" as="geometry" />
        </mxCell>
      </root>
    </mxGraphModel>
  </diagram>
</mxfile>
